<svg width="40" height="40" xmlns="http://www.w3.org/2000/svg" fill="none">

 <g>
  <title>Layer 1</title>
  <path id="svg_7" fill="#FA865F" d="m22.3927,37.0075l-11.0878,0c-4.63711,0 -8.39853,-3.758 -8.39853,-8.3985l0,-17.2178c0,-4.6371 3.75797,-8.39852 8.39853,-8.39852l13.5115,0c-1.5066,0.14825 -2.965,0.46888 -4.3648,0.97224c-1.9893,0.71712 -3.6063,1.79624 -4.8509,3.23393c-1.2446,1.43768 -1.8686,3.16155 -1.8686,5.17495c0,2.1548 0.5275,3.9062 1.5825,5.2439c1.0515,1.3412 2.3237,2.3479 3.8097,3.0168c1.4825,0.6723 3.3994,1.3411 5.7472,2.0134c1.917,0.5758 3.4133,1.0791 4.4924,1.5101c1.0757,0.431 1.9755,1.0309 2.6961,1.7962c0.7171,0.7654 1.0756,1.748 1.0756,2.9444c0,1.7721 -0.6343,3.1511 -1.9031,4.1303c-1.2687,0.9826 -3.0305,1.4721 -5.2818,1.4721c-2.4927,0 -4.3958,-0.4206 -5.7128,-1.2584c-1.317,-0.8378 -1.9756,-1.9755 -1.9756,-3.4132c0,-1.0515 0.2759,-1.8686 0.8275,-2.4444c0.5516,-0.5757 0.8274,-0.886 0.8274,-0.9343c0,-0.2379 -0.2999,-0.5758 -0.8998,-1.0067c-0.5999,-0.431 -1.2826,-0.6482 -2.0479,-0.6482c-1.3412,0 -2.4307,0.431 -3.2684,1.2929c-0.8378,0.8619 -1.2584,1.9893 -1.2584,3.3787c0,2.4444 1.1963,4.3372 3.5924,5.6749c1.7377,0.9826 3.8614,1.5963 6.3576,1.8652z"/>
  <path id="svg_8" fill="#FA865F" d="m28.8399,0l-17.6832,0c-6.15067,0 -11.1567,5.00603 -11.1567,11.1567l0,17.6832c0,6.1541 5.00603,11.1567 11.1567,11.1567l17.6832,0c6.1541,0 11.1601,-5.0061 11.1601,-11.1567l0,-17.6832c0,-6.15067 -5.006,-11.1567 -11.1601,-11.1567zm10.2051,28.8399c0,5.6335 -4.5682,10.2016 -10.2017,10.2016l-17.6866,0c-5.63351,0 -10.20169,-4.5681 -10.20169,-10.2016l0,-17.6832c0,-5.63351 4.56818,-10.20169 10.20169,-10.20169l17.6832,0c2.403,0 4.6095,0.83778 6.354,2.2341c1.9859,1.91691 3.296,5.13015 1.8135,8.34679c-0.1965,0.5413 -0.4896,1.0378 -0.8791,1.486c-0.7896,0.9102 -1.8342,1.3653 -3.1271,1.3653c-0.7688,0 -1.448,-0.2172 -2.0479,-0.6482c-0.5999,-0.4309 -0.8999,-0.7654 -0.8999,-1.0067c0,-0.0483 0.1931,-0.2379 0.5758,-0.5758c0.3827,-0.3344 0.7309,-0.7309 1.0447,-1.186c0.3102,-0.4551 0.4688,-0.99291 0.4688,-1.61694c-0.0965,-1.29288 -0.7447,-2.2996 -1.941,-3.01672c-1.1998,-0.71712 -2.6134,-1.07913 -4.2407,-1.07913c-1.8203,0 -3.4132,0.42062 -4.7784,1.25841c-1.3653,0.83778 -2.048,1.99965 -2.048,3.48558c0,1.3412 0.2862,2.4065 0.862,3.196c0.5757,0.7895 1.4376,1.4274 2.5857,1.9031c1.1481,0.4793 2.9685,1.1274 5.4611,1.9411c2.5375,0.8136 4.5268,1.5687 5.9645,2.2651c1.2205,0.5896 2.21,1.3619 2.9995,2.2962c0.0104,0.0138 0.0207,0.0241 0.031,0.0379c1.3377,1.6101 2.0066,3.6683 2.0066,5.7611l0,1.4377l0,0z"/>
 </g>
</svg>